# xmcd
#
# Track frame offsets:
#	150
#	26698
#	51116
#	76496
#	98888
#	123211
#	146215
#	173807
#	197081
#	214967
#	229055
#
# Disc length: 3371 seconds
#
# Revision: 1
# Processed by: cddbd v1.5.2PL0 Copyright (c) Steve Scherf et al.
# Submitted via: audiograbber 1.83.01
#
DISCID=9a0d290b
DTITLE=Emil Brandqvist Trio - Seascapes
DYEAR=2015
DGENRE=Jazz
TTITLE0=Vals
TTITLE1=Silloin lennän
TTITLE2=Skog
TTITLE3=Färdas under vatten
TTITLE4=Du håller min hand
TTITLE5=Bobergs udde
TTITLE6=Den sista isbjörnen
TTITLE7=Savotta
TTITLE8=Stormsvala
TTITLE9=Grimsholmen
TTITLE10=Havsanemon
EXTD=
EXTT0=
EXTT1=
EXTT2=
EXTT3=
EXTT4=
EXTT5=
EXTT6=
EXTT7=
EXTT8=
EXTT9=
EXTT10=
PLAYORDER=
